<svg width="895" height="1034" viewBox="0 0 895 1034" fill="none" xmlns="http://www.w3.org/2000/svg">
<mask id="mask0_65_2" style="mask-type:luminance" maskUnits="userSpaceOnUse" x="0" y="0" width="895" height="517">
<path d="M894.951 258.35L447.476 0L-0.000214308 258.35L447.476 516.701L894.951 258.35Z" fill="white"/>
</mask>
<g mask="url(#mask0_65_2)">
<path d="M894.943 258.347L447.467 -0.00305176L-0.00851509 258.347L447.467 516.698L894.943 258.347Z" fill="#CEB534"/>
<mask id="mask1_65_2" style="mask-type:luminance" maskUnits="userSpaceOnUse" x="-200" y="-428" width="1263" height="941">
<path d="M1062.36 -411.562L-163.769 -427.17L-199.042 496.513L1027.09 512.121L1062.36 -411.562Z" fill="white"/>
</mask>
<g mask="url(#mask1_65_2)">
<path d="M558.174 212.956C566.021 204.373 570.099 196.032 570.408 187.932C570.717 179.833 570.206 173.532 568.874 169.029C567.542 164.526 565.189 160.517 561.814 157.001C554.586 149.384 543.456 145.48 528.426 145.289C509.888 145.053 492.954 148.744 477.625 156.364C461.283 164.258 452.869 174.571 452.382 187.298C452.073 195.398 456.685 202.62 466.217 208.963C475.75 215.306 487.921 221.467 502.731 227.444C517.541 233.42 533.353 239.41 550.167 245.412C566.981 251.414 582.771 257.982 597.536 265.116C631.5 281.466 648.073 300.343 647.256 321.749C646.703 336.213 639.553 349.507 625.807 361.632C612.061 373.757 593.993 384.163 571.605 392.85C522.755 411.907 466.515 421.031 402.885 420.222C351.279 419.564 312.384 414.222 286.2 404.193C260.015 394.165 247.205 381.774 247.768 367.021C248.773 340.698 267.189 324.437 303.016 318.236C313.114 316.338 325.804 315.487 341.085 315.682C356.366 315.876 372.703 317.966 390.095 321.949C381.626 333.707 377.187 344.938 376.779 355.641C375.894 378.782 389.732 390.535 418.291 390.898C436.828 391.134 453.888 387.444 469.467 379.828C485.047 372.213 493.005 363.994 493.342 355.171C493.679 346.347 489.084 338.692 479.557 332.204C470.03 325.716 458.098 319.849 443.761 314.601C429.425 309.354 413.959 304.165 397.362 299.033C380.765 293.902 365.334 287.773 351.07 280.645C317.607 264.302 301.362 243.402 302.334 217.947C302.964 201.458 310.539 186.868 325.06 174.174C339.58 161.48 358.279 150.937 381.157 142.546C426.922 125.475 477.487 117.292 532.852 117.996C588.215 118.701 629.117 123.996 655.558 133.883C681.998 143.771 694.909 156.814 694.291 173.013C693.749 187.188 683.788 198.637 664.406 207.362C647.585 214.673 629.154 218.2 609.112 217.944C589.071 217.69 572.092 216.027 558.174 212.956Z" fill="#373737"/>
</g>
</g>
<mask id="mask2_65_2" style="mask-type:luminance" maskUnits="userSpaceOnUse" x="447" y="258" width="448" height="776">
<path d="M894.998 775.033L894.998 258.332L447.522 516.682L447.522 1033.38L894.998 775.033Z" fill="white"/>
</mask>
<g mask="url(#mask2_65_2)">
<path d="M894.998 775.033L894.998 258.332L447.522 516.682L447.522 1033.38L894.998 775.033Z" fill="#DAC036"/>
<mask id="mask3_65_2" style="mask-type:luminance" maskUnits="userSpaceOnUse" x="570" y="277" width="292" height="811">
<path d="M861.449 277.673L570.753 445.506L570.753 1087.61L861.449 919.777L861.449 277.673Z" fill="white"/>
</mask>
<g mask="url(#mask3_65_2)">
<path d="M587.619 608.238C576.576 604.23 571.055 591.143 571.055 568.979C571.055 546.814 576.983 526.519 588.837 508.093C600.691 489.668 616.849 474.548 637.31 462.736C650.301 455.235 672.224 445.373 703.078 433.151L736.206 420.014C747.249 415.237 758.534 409.519 770.064 402.862C781.594 396.207 791.256 387.633 799.051 377.141C810.743 383.171 816.589 395.371 816.589 413.741C816.589 432.112 809.931 451.73 796.615 472.597C782.974 494.45 767.385 510.44 749.846 520.565C741.402 525.441 730.36 530.419 716.719 535.499C700.805 606.188 692.848 662.899 692.848 705.63C692.848 748.362 701.617 775.847 719.155 788.085C711.035 810.745 700.967 829.038 688.95 842.964C676.933 856.891 661.912 869.058 643.887 879.465C625.862 889.872 611.247 892.22 600.042 886.508C588.837 880.796 583.234 865.361 583.234 840.202C583.234 811.048 589.73 768.759 602.721 713.335C615.713 658.312 631.951 607.004 651.438 559.41C642.02 563.651 632.438 568.583 622.696 574.208C602.558 585.834 590.867 597.177 587.619 608.238Z" fill="#373737"/>
</g>
</g>
<mask id="mask4_65_2" style="mask-type:luminance" maskUnits="userSpaceOnUse" x="0" y="258" width="448" height="776">
<path d="M447.479 516.703L0.00292969 258.352L0.0029183 775.053L447.479 1033.4L447.479 516.703Z" fill="white"/>
</mask>
<g mask="url(#mask4_65_2)">
<path d="M447.479 516.703L0.00292969 258.352L0.0029183 775.053L447.479 1033.4L447.479 516.703Z" fill="#C2AA2D"/>
<path d="M101.656 469.122C89.5852 451.496 83.5498 431.31 83.5498 408.563C83.5498 385.816 90.029 372.241 102.987 367.837C115.946 363.433 133.608 367.687 155.976 380.601C170.176 388.799 194.141 405.504 227.869 430.715L264.081 457.77C276.152 466.379 288.49 474.322 301.092 481.598C313.696 488.874 324.258 491.899 332.779 490.67C345.56 511.165 351.95 530.838 351.95 549.691C351.95 568.545 344.672 580.532 330.116 585.653C315.205 591.389 298.164 588.723 278.992 577.654C269.761 572.325 257.69 563.921 242.779 552.443C225.383 605.517 216.685 653.981 216.685 697.834C216.685 741.689 226.27 780.626 245.442 814.647C236.567 827.966 225.56 834.42 212.424 834.008C199.289 833.596 182.869 827.703 163.164 816.326C143.461 804.95 127.484 789.476 115.236 769.904C102.987 750.331 96.8633 727.635 96.8633 701.814C96.8633 671.896 103.964 636.444 118.165 595.461C132.366 554.887 150.117 522.102 171.419 497.104C161.123 489.929 150.65 483.268 139.999 477.118C117.988 464.41 105.206 461.745 101.656 469.122Z" fill="#373737"/>
</g>
</svg>
